<?xml version="1.0" encoding="utf-8"?>
<!-- Generator: Adobe Illustrator 24.0.0, SVG Export Plug-In . SVG Version: 6.00 Build 0)  -->
<svg version="1.1" id="Layer_1" xmlns="http://www.w3.org/2000/svg" xmlns:xlink="http://www.w3.org/1999/xlink" x="0px" y="0px"
	 viewBox="0 0 256 256" style="enable-background:new 0 0 256 256;" xml:space="preserve">
<style type="text/css">
	.st0{fill:#382B73;}
	.st1{fill:#291B4A;}
	.st2{fill:#ED9ABC;}
	.st3{fill:#E54890;}
	.st4{fill:#D3D3D3;}
	.st5{fill:#EBE7F2;}
	.st6{fill:#F9B087;}
	.st7{fill:#FF8639;}
	.st8{fill:#65C1D6;}
	.st9{fill:#149CB2;}
</style>
<g>
	<g>
		<g>
			<g>
				<g>
					<circle class="st0" cx="128" cy="128" r="119.4"/>
				</g>
			</g>
		</g>
	</g>
	<g>
		<g>
			<g>
				<g>
					<path class="st1" d="M139.076,196.939c-0.977-0.977-2.559-0.977-3.535,0l-18.447,18.446c-0.469,0.469-0.732,1.104-0.732,1.768
						s0.263,1.299,0.732,1.768l18.447,18.447c0.488,0.488,1.128,0.732,1.768,0.732s1.279-0.244,1.768-0.732
						c0.977-0.977,0.977-2.559,0-3.535l-13.706-13.706c0.877,0.026,1.754,0.043,2.629,0.043c48.057,0,87.153-39.097,87.153-87.153
						c0-18.967-5.987-36.999-17.315-52.146c-10.952-14.645-26.551-25.685-43.923-31.088c-1.318-0.412-2.719,0.326-3.129,1.645
						s0.326,2.72,1.645,3.129c34.525,10.739,57.723,42.271,57.723,78.461c0,45.3-36.854,82.153-82.153,82.153
						c-1.174,0-2.352-0.04-3.529-0.09l14.605-14.605C140.053,199.498,140.053,197.916,139.076,196.939z"/>
				</g>
			</g>
		</g>
		<g>
			<g>
				<g>
					<path class="st1" d="M40.847,133.017c0,19,6.006,37.057,17.37,52.219c10.987,14.66,26.629,25.694,44.044,31.07
						c0.246,0.076,0.494,0.112,0.738,0.112c1.067,0,2.056-0.689,2.388-1.764c0.407-1.319-0.332-2.719-1.651-3.126
						c-34.625-10.688-57.888-42.24-57.888-78.512c0-45.3,36.854-82.153,82.153-82.153c1.063,0,2.129,0.039,3.194,0.08l-14.1,14.1
						c-0.977,0.977-0.977,2.559,0,3.535c0.488,0.488,1.128,0.732,1.768,0.732s1.28-0.244,1.768-0.732l18.447-18.447
						c0.977-0.977,0.977-2.559,0-3.535l-18.447-18.447c-0.976-0.977-2.56-0.977-3.535,0c-0.977,0.977-0.977,2.559,0,3.535
						l14.263,14.263c-1.119-0.042-2.24-0.084-3.357-0.084C79.943,45.863,40.847,84.96,40.847,133.017z"/>
				</g>
			</g>
		</g>
		<g>
			<g>
				<g>
					<path class="st1" d="M75.436,127.748v10.538c0,3.258,2.203,6.103,5.358,6.919l10.961,2.825L86,157.78
						c-1.652,2.808-1.198,6.377,1.105,8.679l7.452,7.451c2.303,2.305,5.874,2.757,8.682,1.104l9.747-5.753l2.825,10.964
						c0.817,3.153,3.663,5.355,6.919,5.355h10.538c3.257,0,6.102-2.202,6.92-5.358l2.824-10.961l9.749,5.754
						c2.808,1.653,6.378,1.199,8.681-1.105l7.451-7.451c2.304-2.303,2.758-5.872,1.104-8.682l-5.754-9.747l10.963-2.826
						c3.154-0.815,5.356-3.66,5.356-6.918v-10.538c0-3.258-2.202-6.104-5.358-6.92l-10.961-2.825l5.755-9.75
						c1.652-2.807,1.198-6.376-1.105-8.679l-7.451-7.451c-2.303-2.305-5.874-2.757-8.683-1.104l-9.747,5.753l-2.825-10.963
						c-0.816-3.153-3.662-5.356-6.919-5.356h-10.538c-3.257,0-6.103,2.203-6.92,5.359l-2.824,10.96l-9.749-5.754
						c-2.805-1.652-6.375-1.199-8.68,1.105l-7.452,7.451c-2.303,2.302-2.758,5.871-1.104,8.682l5.753,9.747l-10.963,2.826
						C77.639,121.645,75.436,124.49,75.436,127.748z M82.042,125.67l14.18-3.654c0.761-0.196,1.385-0.738,1.686-1.464
						c0.301-0.727,0.243-1.551-0.157-2.228l-7.441-12.606c-0.497-0.845-0.361-1.917,0.331-2.608l7.452-7.451
						c0.692-0.692,1.765-0.829,2.606-0.333l12.609,7.442c0.677,0.397,1.501,0.455,2.227,0.156c0.726-0.301,1.269-0.925,1.464-1.686
						l3.652-14.176c0.246-0.948,1.101-1.61,2.08-1.61h10.538c0.979,0,1.833,0.662,2.078,1.607l3.653,14.179
						c0.196,0.761,0.738,1.385,1.464,1.686c0.727,0.303,1.553,0.242,2.228-0.156l12.607-7.441c0.842-0.497,1.915-0.36,2.608,0.332
						l7.451,7.451c0.691,0.692,0.828,1.765,0.333,2.605l-7.443,12.609c-0.399,0.676-0.457,1.501-0.156,2.228
						c0.301,0.726,0.925,1.268,1.686,1.464l14.178,3.653c0.947,0.245,1.608,1.101,1.608,2.079v10.538
						c0,0.979-0.661,1.833-1.606,2.077l-14.18,3.654c-0.761,0.196-1.385,0.738-1.686,1.464c-0.301,0.727-0.243,1.552,0.156,2.228
						l7.442,12.606c0.496,0.844,0.359,1.916-0.332,2.608l-7.451,7.451c-0.691,0.692-1.766,0.829-2.606,0.333l-12.609-7.442
						c-0.676-0.398-1.502-0.456-2.228-0.156c-0.726,0.301-1.268,0.925-1.464,1.686l-3.652,14.177
						c-0.246,0.947-1.101,1.609-2.079,1.609h-10.538c-0.979,0-1.834-0.662-2.079-1.606L117,164.795
						c-0.196-0.761-0.738-1.385-1.464-1.686c-0.307-0.128-0.632-0.19-0.957-0.19c-0.441,0-0.881,0.117-1.271,0.347l-12.607,7.441
						c-0.844,0.497-1.915,0.36-2.608-0.332l-7.452-7.451c-0.692-0.691-0.828-1.764-0.333-2.605l7.443-12.609
						c0.399-0.677,0.458-1.501,0.157-2.228c-0.3-0.726-0.925-1.268-1.686-1.464l-14.178-3.653c-0.947-0.245-1.608-1.1-1.608-2.078
						v-10.538C80.436,126.77,81.098,125.914,82.042,125.67z"/>
				</g>
			</g>
		</g>
		<g>
			<g>
				<g>
					<path class="st1" d="M147.543,133.017c0-10.776-8.767-19.543-19.543-19.543c-10.776,0-19.543,8.767-19.543,19.543
						S117.224,152.56,128,152.56C138.776,152.56,147.543,143.793,147.543,133.017z M113.457,133.017
						c0-8.019,6.524-14.543,14.543-14.543c8.019,0,14.543,6.524,14.543,14.543S136.019,147.56,128,147.56
						C119.981,147.56,113.457,141.035,113.457,133.017z"/>
				</g>
			</g>
		</g>
		<g>
			<g>
				<g>
					<path class="st1" d="M149.421,195.079c-1.306,0.45-1.998,1.874-1.548,3.179c0.357,1.035,1.326,1.686,2.363,1.686
						c0.271,0,0.546-0.045,0.815-0.138c28.462-9.821,47.585-36.662,47.585-66.789c0-16.931-6.082-33.307-17.126-46.111
						c-10.928-12.67-25.999-21.073-42.439-23.662c-1.369-0.213-2.644,0.718-2.858,2.081s0.717,2.644,2.081,2.858
						c32.067,5.049,55.343,32.315,55.343,64.834C193.637,161.012,175.868,185.953,149.421,195.079z"/>
				</g>
			</g>
		</g>
		<g>
			<g>
				<g>
					<path class="st1" d="M108.51,70.321c1.319-0.409,2.056-1.811,1.646-3.129c-0.41-1.319-1.812-2.055-3.129-1.646
						c-29.706,9.225-49.664,36.339-49.664,67.471c0,34.458,24.604,63.729,58.504,69.598c0.144,0.025,0.288,0.037,0.429,0.037
						c1.193,0,2.25-0.857,2.46-2.073c0.235-1.36-0.676-2.654-2.037-2.89c-31.497-5.454-54.357-32.652-54.357-64.672
						C62.364,104.088,80.909,78.893,108.51,70.321z"/>
				</g>
			</g>
		</g>
	</g>
	<g>
		<g>
			<g>
				<g>
					<path class="st6" d="M75.436,123.748v10.538c0,3.258,2.203,6.103,5.358,6.919l10.961,2.825L86,153.78
						c-1.652,2.808-1.198,6.377,1.105,8.679l7.452,7.451c2.303,2.305,5.874,2.757,8.682,1.104l9.747-5.753l2.825,10.964
						c0.817,3.153,3.663,5.355,6.919,5.355h10.538c3.257,0,6.102-2.202,6.92-5.358l2.824-10.961l9.749,5.754
						c2.808,1.652,6.378,1.199,8.681-1.105l7.451-7.451c2.304-2.303,2.758-5.872,1.104-8.682l-5.754-9.747l10.963-2.826
						c3.154-0.815,5.356-3.66,5.356-6.918v-10.538c0-3.258-2.202-6.104-5.358-6.92l-10.961-2.825l5.755-9.75
						c1.652-2.807,1.198-6.376-1.105-8.679l-7.451-7.451c-2.303-2.305-5.874-2.757-8.683-1.104l-9.747,5.753l-2.825-10.963
						c-0.816-3.153-3.662-5.356-6.919-5.356h-10.538c-3.257,0-6.103,2.203-6.92,5.359l-2.824,10.96l-9.749-5.754
						c-2.805-1.653-6.375-1.199-8.68,1.105l-7.452,7.451c-2.303,2.302-2.758,5.871-1.104,8.682l5.753,9.747l-10.963,2.826
						C77.639,117.645,75.436,120.49,75.436,123.748z M82.042,121.67l14.18-3.654c0.761-0.196,1.385-0.738,1.686-1.464
						c0.301-0.727,0.243-1.551-0.157-2.228l-7.441-12.606c-0.497-0.845-0.361-1.917,0.331-2.608l7.452-7.451
						c0.692-0.692,1.765-0.829,2.606-0.333l12.609,7.442c0.677,0.397,1.501,0.455,2.227,0.156c0.726-0.301,1.269-0.925,1.464-1.686
						l3.652-14.176c0.246-0.948,1.101-1.61,2.08-1.61h10.538c0.979,0,1.833,0.662,2.078,1.607l3.653,14.179
						c0.196,0.761,0.738,1.385,1.464,1.686c0.727,0.303,1.553,0.242,2.228-0.156l12.607-7.441c0.842-0.498,1.915-0.361,2.608,0.332
						l7.451,7.451c0.691,0.692,0.828,1.765,0.333,2.605l-7.443,12.609c-0.399,0.676-0.457,1.501-0.156,2.228
						c0.301,0.726,0.925,1.268,1.686,1.464l14.178,3.653c0.947,0.245,1.608,1.101,1.608,2.079v10.538
						c0,0.979-0.661,1.833-1.606,2.077l-14.18,3.654c-0.761,0.196-1.385,0.738-1.686,1.464c-0.301,0.727-0.243,1.552,0.156,2.228
						l7.442,12.606c0.496,0.844,0.359,1.916-0.332,2.608l-7.451,7.451c-0.691,0.692-1.766,0.829-2.606,0.333l-12.609-7.442
						c-0.676-0.398-1.502-0.456-2.228-0.156c-0.726,0.301-1.268,0.925-1.464,1.686l-3.652,14.177
						c-0.246,0.947-1.101,1.609-2.079,1.609h-10.538c-0.979,0-1.834-0.662-2.079-1.606L117,160.795
						c-0.196-0.761-0.738-1.385-1.464-1.686c-0.307-0.128-0.632-0.19-0.957-0.19c-0.441,0-0.881,0.117-1.271,0.347l-12.607,7.441
						c-0.844,0.498-1.915,0.36-2.608-0.332l-7.452-7.451c-0.692-0.691-0.828-1.764-0.333-2.605l7.443-12.609
						c0.399-0.677,0.458-1.501,0.157-2.228c-0.3-0.726-0.925-1.268-1.686-1.464l-14.178-3.653c-0.947-0.245-1.608-1.1-1.608-2.078
						v-10.538C80.436,122.77,81.098,121.914,82.042,121.67z"/>
				</g>
			</g>
		</g>
		<g>
			<g>
				<g>
					<g>
						<path class="st7" d="M75.436,123.748v10.538c0,3.258,2.203,6.103,5.358,6.919l10.961,2.825L86,153.78
							c-1.652,2.808-1.198,6.377,1.105,8.679l7.452,7.451c1.377,1.378,3.206,2.093,5.055,2.093c1.244,0,2.497-0.324,3.627-0.989
							l9.747-5.753l2.825,10.964c0.817,3.153,3.663,5.355,6.919,5.355h10.538c3.257,0,6.102-2.202,6.92-5.358l2.824-10.961
							l9.749,5.754c1.129,0.665,2.381,0.989,3.625,0.989c1.849,0,3.679-0.716,5.055-2.094l7.451-7.451
							c2.304-2.303,2.758-5.872,1.104-8.682l-5.754-9.747l10.963-2.826c3.154-0.815,5.356-3.66,5.356-6.918v-10.538
							c0-3.258-2.202-6.104-5.358-6.92l-10.961-2.825l5.755-9.75c1.652-2.807,1.198-6.376-1.105-8.679l-7.451-7.451
							c-1.377-1.378-3.206-2.093-5.055-2.093c-1.244,0-2.498,0.324-3.627,0.989l-9.747,5.753l-2.825-10.963
							c-0.816-3.153-3.662-5.356-6.919-5.356h-10.538c-3.257,0-6.103,2.203-6.92,5.359l-2.824,10.96l-9.749-5.754
							c-1.128-0.665-2.379-0.989-3.623-0.989c-1.849,0-3.679,0.716-5.057,2.094l-7.452,7.451c-2.303,2.302-2.758,5.871-1.104,8.682
							l5.753,9.747l-10.963,2.826C77.639,117.645,75.436,120.49,75.436,123.748z M92.13,115.456
							c0.456-0.118,0.831-0.443,1.011-0.879s0.146-0.93-0.094-1.336l-5.753-9.746c-1.307-2.22-0.949-5.041,0.871-6.86l7.452-7.451
							c1.068-1.067,2.487-1.655,3.997-1.655c1.005,0,1.994,0.27,2.86,0.781l9.749,5.754c0.234,0.138,0.498,0.208,0.763,0.208
							c0.194,0,0.39-0.038,0.574-0.114c0.435-0.18,0.761-0.555,0.878-1.011l2.824-10.958c0.646-2.494,2.895-4.236,5.468-4.236
							h10.538c2.574,0,4.822,1.74,5.466,4.231l2.825,10.963c0.118,0.457,0.443,0.831,0.878,1.011
							c0.184,0.076,0.38,0.114,0.574,0.114c0.265,0,0.528-0.07,0.763-0.208l9.745-5.752c0.869-0.511,1.861-0.782,2.867-0.782
							c1.51,0,2.929,0.587,3.995,1.654l7.451,7.451c1.82,1.819,2.179,4.639,0.874,6.855l-5.755,9.75
							c-0.24,0.406-0.274,0.901-0.094,1.336c0.18,0.436,0.555,0.761,1.011,0.879l10.96,2.825c2.493,0.645,4.234,2.893,4.234,5.468
							v10.538c0,2.574-1.74,4.822-4.231,5.465l-10.963,2.826c-0.456,0.118-0.831,0.443-1.011,0.879s-0.146,0.931,0.094,1.336
							l5.753,9.745c1.306,2.22,0.948,5.041-0.872,6.86l-7.452,7.451c-1.066,1.067-2.484,1.654-3.994,1.654
							c-1.005,0-1.996-0.27-2.863-0.78l-9.749-5.754c-0.234-0.138-0.498-0.208-0.763-0.208c-0.194,0-0.39,0.038-0.574,0.114
							c-0.436,0.18-0.761,0.555-0.878,1.011l-2.824,10.959c-0.647,2.493-2.895,4.235-5.468,4.235h-10.538
							c-2.574,0-4.822-1.74-5.467-4.23l-2.825-10.964c-0.118-0.457-0.443-0.831-0.878-1.011c-0.184-0.076-0.38-0.114-0.574-0.114
							c-0.265,0-0.528,0.07-0.763,0.208l-9.745,5.752c-0.869,0.511-1.86,0.781-2.866,0.781c-1.51,0-2.929-0.587-3.995-1.654
							l-7.452-7.451c-1.82-1.819-2.179-4.638-0.874-6.855l5.755-9.75c0.24-0.406,0.274-0.901,0.094-1.336
							c-0.18-0.436-0.555-0.761-1.011-0.879l-10.96-2.825c-2.493-0.645-4.234-2.893-4.234-5.467v-10.538
							c0-2.574,1.74-4.823,4.231-5.466L92.13,115.456z"/>
						<path class="st7" d="M81.67,137.817l14.177,3.653c0.303,0.078,0.555,0.297,0.674,0.585c0.12,0.289,0.096,0.622-0.063,0.891
							l-7.444,12.611c-0.842,1.432-0.61,3.252,0.565,4.427l7.452,7.451c0.69,0.689,1.606,1.069,2.58,1.069
							c0.65,0,1.29-0.175,1.851-0.506l12.606-7.441c0.155-0.091,0.331-0.139,0.509-0.139c0.132,0,0.26,0.025,0.382,0.076
							c0.289,0.12,0.508,0.372,0.586,0.674l3.654,14.182c0.416,1.607,1.868,2.73,3.531,2.73h10.538c1.661,0,3.113-1.124,3.532-2.735
							l3.652-14.176c0.078-0.303,0.297-0.555,0.584-0.674c0.122-0.051,0.252-0.076,0.384-0.076c0.179,0,0.355,0.048,0.508,0.138
							l12.61,7.443c0.56,0.33,1.199,0.505,1.849,0.505c0.976,0,1.892-0.38,2.58-1.069l7.452-7.452
							c1.174-1.175,1.406-2.997,0.562-4.431l-7.443-12.607c-0.158-0.268-0.182-0.601-0.062-0.89c0.12-0.289,0.372-0.508,0.674-0.586
							l14.18-3.655c1.608-0.415,2.731-1.867,2.731-3.53v-10.538c0-1.663-1.124-3.115-2.734-3.532l-14.177-3.653
							c-0.303-0.078-0.555-0.297-0.674-0.585c-0.12-0.29-0.097-0.623,0.062-0.891l7.444-12.611c0.842-1.43,0.61-3.25-0.565-4.427
							l-7.451-7.451c-0.69-0.69-1.606-1.069-2.581-1.07c-0.651,0-1.292,0.176-1.851,0.506l-12.608,7.441
							c-0.154,0.091-0.33,0.139-0.509,0.139c-0.131,0-0.259-0.026-0.382-0.077c-0.289-0.12-0.508-0.372-0.586-0.674L136.8,82.683
							c-0.417-1.608-1.869-2.731-3.53-2.731h-10.538c-1.662,0-3.115,1.124-3.532,2.736l-3.652,14.176
							c-0.078,0.302-0.297,0.554-0.583,0.672c-0.123,0.051-0.253,0.076-0.385,0.076c-0.18,0-0.357-0.048-0.508-0.137l-12.61-7.443
							c-0.56-0.33-1.199-0.504-1.848-0.505c-0.975,0-1.891,0.38-2.58,1.069l-7.451,7.451c-1.175,1.175-1.407,2.996-0.563,4.432
							l7.441,12.606c0.159,0.269,0.182,0.602,0.063,0.892c-0.119,0.288-0.371,0.507-0.674,0.585l-14.181,3.655
							c-1.608,0.416-2.731,1.867-2.731,3.531v10.538C78.936,135.948,80.06,137.4,81.67,137.817z M80.436,123.748
							c0-0.979,0.662-1.834,1.606-2.078l14.18-3.654c0.761-0.196,1.385-0.738,1.686-1.464c0.301-0.727,0.243-1.551-0.157-2.228
							l-7.441-12.606c-0.497-0.845-0.361-1.917,0.331-2.608l7.452-7.451c0.414-0.414,0.964-0.63,1.52-0.629
							c0.373,0,0.748,0.097,1.086,0.296l12.609,7.442c0.39,0.229,0.83,0.345,1.271,0.345c0.324,0,0.649-0.063,0.956-0.189
							c0.726-0.301,1.269-0.925,1.464-1.686l3.652-14.176c0.246-0.948,1.101-1.61,2.08-1.61h10.538c0.979,0,1.833,0.662,2.078,1.607
							l3.653,14.179c0.196,0.761,0.738,1.385,1.464,1.686c0.307,0.128,0.632,0.191,0.956,0.191c0.442,0,0.882-0.117,1.271-0.347
							l12.607-7.441c0.339-0.2,0.715-0.298,1.088-0.298c0.555,0,1.106,0.216,1.52,0.63l7.451,7.451
							c0.691,0.692,0.828,1.765,0.333,2.605l-7.443,12.609c-0.399,0.676-0.457,1.501-0.156,2.228
							c0.301,0.726,0.925,1.268,1.686,1.464l14.178,3.653c0.947,0.245,1.608,1.101,1.608,2.079v10.538
							c0,0.979-0.661,1.833-1.606,2.077l-14.18,3.654c-0.761,0.196-1.385,0.738-1.686,1.464c-0.301,0.727-0.243,1.552,0.156,2.228
							l7.442,12.606c0.496,0.844,0.359,1.916-0.332,2.608l-7.451,7.451c-0.414,0.414-0.964,0.629-1.52,0.629
							c-0.373,0-0.749-0.097-1.087-0.296l-12.609-7.442c-0.39-0.23-0.829-0.346-1.271-0.346c-0.324,0-0.65,0.063-0.957,0.19
							c-0.726,0.301-1.268,0.925-1.464,1.686l-3.652,14.177c-0.246,0.947-1.101,1.609-2.079,1.609h-10.538
							c-0.979,0-1.834-0.662-2.079-1.606L117,160.795c-0.196-0.761-0.738-1.385-1.464-1.686c-0.307-0.128-0.632-0.19-0.957-0.19
							c-0.441,0-0.881,0.117-1.271,0.347l-12.607,7.441c-0.339,0.2-0.715,0.298-1.089,0.298c-0.555,0-1.105-0.216-1.519-0.63
							l-7.452-7.451c-0.692-0.691-0.828-1.764-0.333-2.605l7.443-12.609c0.399-0.677,0.458-1.501,0.157-2.228
							c-0.3-0.726-0.925-1.268-1.686-1.464l-14.178-3.653c-0.947-0.245-1.608-1.1-1.608-2.078V123.748z"/>
					</g>
				</g>
			</g>
		</g>
		<g>
			<g>
				<g>
					<path class="st4" d="M147.543,129.017c0-10.776-8.767-19.543-19.543-19.543c-10.776,0-19.543,8.767-19.543,19.543
						S117.224,148.56,128,148.56C138.776,148.56,147.543,139.793,147.543,129.017z M113.457,129.017
						c0-8.019,6.524-14.543,14.543-14.543c8.019,0,14.543,6.524,14.543,14.543S136.019,143.56,128,143.56
						C119.981,143.56,113.457,137.035,113.457,129.017z"/>
				</g>
			</g>
		</g>
		<g>
			<g>
				<g>
					<g>
						<path class="st8" d="M128,211.17c-2.823,0-5.671-0.145-8.465-0.431c-1.378-0.141-2.601,0.859-2.741,2.233
							c-0.141,1.373,0.859,2.601,2.232,2.741c2.962,0.303,5.981,0.456,8.974,0.456c48.057,0,87.153-39.097,87.153-87.153
							c0-18.967-5.987-36.999-17.315-52.146c-10.952-14.645-26.551-25.685-43.923-31.088c-1.318-0.411-2.719,0.325-3.129,1.645
							c-0.41,1.318,0.326,2.72,1.645,3.129c34.525,10.739,57.723,42.271,57.723,78.461C210.153,174.316,173.3,211.17,128,211.17z"/>
					</g>
				</g>
			</g>
			<g>
				<g>
					<g>
						<path class="st8" d="M128,46.863c2.768,0,5.556,0.139,8.286,0.412c1.377,0.138,2.599-0.865,2.736-2.238
							c0.138-1.374-0.864-2.599-2.238-2.736c-2.896-0.29-5.851-0.438-8.784-0.438c-48.057,0-87.153,39.097-87.153,87.153
							c0,19,6.006,37.057,17.37,52.219c10.987,14.66,26.629,25.694,44.044,31.07c0.246,0.076,0.494,0.112,0.738,0.112
							c1.067,0,2.056-0.689,2.388-1.764c0.407-1.319-0.332-2.719-1.651-3.126c-34.625-10.688-57.888-42.24-57.888-78.512
							C45.847,83.717,82.701,46.863,128,46.863z"/>
					</g>
				</g>
			</g>
			<g>
				<g>
					<g>
						<path class="st8" d="M117.094,64.578c0.488,0.488,1.128,0.732,1.768,0.732s1.28-0.244,1.768-0.732l18.447-18.447
							c0.977-0.977,0.977-2.559,0-3.535l-18.447-18.447c-0.976-0.977-2.56-0.977-3.535,0c-0.977,0.977-0.977,2.559,0,3.535
							l16.679,16.68l-16.679,16.68C116.118,62.02,116.118,63.602,117.094,64.578z"/>
					</g>
				</g>
			</g>
			<g>
				<g>
					<g>
						<path class="st8" d="M139.076,192.939c-0.977-0.977-2.559-0.977-3.535,0l-18.447,18.446c-0.469,0.469-0.732,1.104-0.732,1.768
							s0.263,1.299,0.732,1.768l18.447,18.447c0.488,0.488,1.128,0.732,1.768,0.732s1.279-0.244,1.768-0.732
							c0.977-0.977,0.977-2.559,0-3.535l-16.679-16.68l16.679-16.679C140.053,195.498,140.053,193.916,139.076,192.939z"/>
					</g>
				</g>
			</g>
		</g>
		<g>
			<g>
				<g>
					<path class="st4" d="M149.421,191.079c-1.306,0.45-1.998,1.874-1.548,3.179c0.357,1.035,1.326,1.686,2.363,1.686
						c0.271,0,0.546-0.045,0.815-0.138c28.462-9.821,47.585-36.662,47.585-66.789c0-16.931-6.082-33.307-17.126-46.111
						c-10.928-12.67-25.999-21.073-42.439-23.662c-1.369-0.207-2.644,0.717-2.858,2.081c-0.215,1.363,0.717,2.644,2.081,2.858
						c32.067,5.049,55.343,32.315,55.343,64.834C193.637,157.012,175.868,181.953,149.421,191.079z"/>
				</g>
			</g>
		</g>
		<g>
			<g>
				<g>
					<path class="st4" d="M108.51,66.321c1.319-0.409,2.056-1.811,1.646-3.129c-0.41-1.319-1.812-2.054-3.129-1.646
						c-29.706,9.225-49.664,36.339-49.664,67.471c0,34.458,24.604,63.729,58.504,69.598c0.144,0.025,0.288,0.037,0.429,0.037
						c1.193,0,2.25-0.857,2.46-2.073c0.235-1.36-0.676-2.654-2.037-2.89c-31.497-5.454-54.357-32.652-54.357-64.672
						C62.364,100.088,80.909,74.893,108.51,66.321z"/>
				</g>
			</g>
		</g>
		<g>
			<g>
				<g>
					<g>
						<path class="st9" d="M139.076,192.939c-0.488-0.488-1.128-0.732-1.768-0.732s-1.279,0.244-1.768,0.732l-18.447,18.446
							c-0.469,0.469-0.732,1.104-0.732,1.768s0.263,1.299,0.732,1.768l18.447,18.447c0.488,0.488,1.128,0.732,1.768,0.732
							s1.279-0.244,1.768-0.732c0.977-0.977,0.977-2.559,0-3.535l-13.706-13.706c0.877,0.026,1.754,0.043,2.629,0.043
							c48.057,0,87.153-39.097,87.153-87.153c0-18.967-5.987-36.999-17.315-52.146c-10.952-14.645-26.551-25.685-43.923-31.088
							c-0.248-0.077-0.498-0.114-0.744-0.114c-1.065,0-2.051,0.687-2.384,1.759c-0.41,1.318,0.326,2.72,1.645,3.129
							c34.525,10.739,57.723,42.271,57.723,78.461c0,45.3-36.854,82.153-82.153,82.153c-1.174,0-2.352-0.04-3.529-0.09
							l14.605-14.605C140.053,195.498,140.053,193.916,139.076,192.939z M138.016,195.414L123.41,210.02
							c-0.421,0.421-0.553,1.051-0.337,1.605c0.216,0.554,0.74,0.929,1.334,0.954c1.065,0.045,2.326,0.091,3.593,0.091
							c46.127,0,83.653-37.527,83.653-83.653c0-36.851-23.621-68.958-58.778-79.894c-0.255-0.079-0.463-0.253-0.587-0.489
							c-0.124-0.236-0.149-0.507-0.07-0.762c0.131-0.421,0.513-0.704,0.952-0.704c0.1,0,0.2,0.015,0.299,0.046
							c17.073,5.31,32.403,16.161,43.167,30.554c11.132,14.886,17.017,32.607,17.017,51.248c0,47.229-38.424,85.653-85.653,85.653
							c-0.778,0-1.623-0.014-2.585-0.042c-0.015,0-0.03-0.001-0.045-0.001c-0.597,0-1.139,0.355-1.377,0.905
							c-0.244,0.564-0.118,1.22,0.316,1.655l13.706,13.706c0.39,0.39,0.39,1.024,0,1.414c-0.189,0.189-0.44,0.293-0.707,0.293
							s-0.518-0.104-0.707-0.293l-18.447-18.448c-0.189-0.188-0.293-0.439-0.293-0.706s0.104-0.518,0.293-0.707L136.602,194
							c0.189-0.189,0.44-0.293,0.707-0.293s0.518,0.104,0.707,0.293C138.405,194.39,138.405,195.024,138.016,195.414z"/>
					</g>
				</g>
			</g>
			<g>
				<g>
					<g>
						<path class="st9" d="M40.847,129.017c0,19,6.006,37.057,17.37,52.219c10.987,14.66,26.629,25.694,44.044,31.07
							c0.246,0.076,0.494,0.112,0.738,0.112c1.067,0,2.056-0.689,2.388-1.764c0.407-1.319-0.332-2.719-1.651-3.126
							c-34.625-10.688-57.888-42.24-57.888-78.512c0-45.3,36.854-82.153,82.153-82.153c1.063,0,2.129,0.039,3.194,0.08l-14.1,14.1
							c-0.977,0.977-0.977,2.559,0,3.535c0.488,0.488,1.128,0.732,1.768,0.732s1.28-0.244,1.768-0.732l18.447-18.447
							c0.977-0.977,0.977-2.559,0-3.535l-18.447-18.447c-0.488-0.488-1.128-0.732-1.768-0.732s-1.28,0.244-1.768,0.732
							c-0.977,0.977-0.977,2.559,0,3.535l14.263,14.263c-1.119-0.042-2.24-0.084-3.357-0.084
							C79.943,41.863,40.847,80.96,40.847,129.017z M131.358,43.447c0.594,0,1.135-0.352,1.374-0.9
							c0.247-0.566,0.122-1.225-0.314-1.661l-14.263-14.264c-0.39-0.39-0.39-1.024,0.001-1.414c0.188-0.189,0.439-0.292,0.706-0.292
							s0.518,0.104,0.707,0.293l18.447,18.447c0.39,0.39,0.39,1.024,0,1.414l-18.447,18.448c-0.188,0.188-0.439,0.292-0.706,0.292
							s-0.518-0.104-0.707-0.293c-0.39-0.39-0.39-1.024,0-1.414l14.1-14.1c0.422-0.422,0.553-1.053,0.336-1.608
							s-0.743-0.929-1.339-0.951c-1.153-0.044-2.193-0.081-3.251-0.081c-46.127,0-83.653,37.527-83.653,83.653
							c0,36.934,23.688,69.061,58.946,79.945c0.255,0.079,0.464,0.252,0.589,0.488c0.125,0.236,0.15,0.507,0.071,0.762
							c-0.13,0.422-0.514,0.706-0.954,0.706c-0.099,0-0.198-0.015-0.296-0.046c-17.115-5.283-32.488-16.128-43.286-30.537
							c-11.167-14.9-17.07-32.646-17.07-51.319c0-47.229,38.424-85.653,85.653-85.653c1.123,0,2.28,0.044,3.3,0.083
							C131.32,43.447,131.339,43.447,131.358,43.447z"/>
					</g>
				</g>
			</g>
		</g>
		<g>
			<g>
				<g>
					<g>
						<path class="st5" d="M147.543,129.017c0-10.776-8.767-19.543-19.543-19.543c-10.776,0-19.543,8.767-19.543,19.543
							S117.224,148.56,128,148.56C138.776,148.56,147.543,139.793,147.543,129.017z M109.957,129.017
							c0-9.949,8.094-18.043,18.043-18.043s18.043,8.094,18.043,18.043S137.949,147.06,128,147.06S109.957,138.966,109.957,129.017z
							"/>
						<path class="st5" d="M144.043,129.017c0-8.846-7.197-16.043-16.043-16.043s-16.043,7.197-16.043,16.043
							S119.154,145.06,128,145.06S144.043,137.863,144.043,129.017z M113.457,129.017c0-8.019,6.524-14.543,14.543-14.543
							c8.019,0,14.543,6.524,14.543,14.543S136.019,143.56,128,143.56C119.981,143.56,113.457,137.035,113.457,129.017z"/>
					</g>
				</g>
			</g>
			<g>
				<g>
					<g>
						<path class="st5" d="M149.421,191.079c-1.306,0.45-1.998,1.874-1.548,3.179c0.357,1.035,1.326,1.686,2.363,1.686
							c0.271,0,0.546-0.045,0.815-0.138c28.462-9.821,47.585-36.662,47.585-66.789c0-16.931-6.082-33.307-17.126-46.111
							c-10.928-12.67-25.999-21.073-42.439-23.662c-0.129-0.02-0.257-0.029-0.384-0.029c-1.216,0-2.28,0.875-2.475,2.11
							c-0.215,1.363,0.717,2.644,2.081,2.858c32.067,5.049,55.343,32.315,55.343,64.834
							C193.637,157.012,175.868,181.953,149.421,191.079z M195.137,129.017c0-33.261-23.808-61.151-56.609-66.316
							c-0.264-0.042-0.496-0.184-0.653-0.4c-0.157-0.216-0.221-0.48-0.179-0.744c0.077-0.489,0.495-0.844,0.993-0.844
							c0.053,0,0.106,0.004,0.15,0.011c16.089,2.534,30.841,10.759,41.537,23.16c10.809,12.532,16.762,28.56,16.762,45.132
							c0,29.488-18.717,55.758-46.573,65.371c-0.108,0.037-0.218,0.056-0.327,0.056c-0.426,0-0.806-0.271-0.945-0.675
							c-0.087-0.252-0.071-0.524,0.046-0.764c0.117-0.24,0.32-0.42,0.573-0.507C176.962,183.163,195.137,157.652,195.137,129.017z"
							/>
					</g>
				</g>
			</g>
			<g>
				<g>
					<g>
						<path class="st5" d="M108.51,66.321c1.319-0.409,2.056-1.811,1.646-3.129c-0.333-1.073-1.323-1.759-2.389-1.759
							c-0.245,0-0.494,0.036-0.74,0.112c-29.706,9.225-49.664,36.339-49.664,67.471c0,34.458,24.604,63.729,58.504,69.598
							c0.144,0.025,0.288,0.037,0.429,0.037c1.193,0,2.25-0.857,2.46-2.073c0.235-1.36-0.676-2.654-2.037-2.89
							c-31.497-5.454-54.357-32.652-54.357-64.672C62.364,100.088,80.909,74.893,108.51,66.321z M60.864,129.017
							c0,32.751,23.384,60.571,55.601,66.15c0.543,0.094,0.908,0.613,0.814,1.156c-0.083,0.48-0.496,0.829-0.982,0.829
							c-0.058,0-0.115-0.005-0.173-0.015c-33.179-5.744-57.26-34.393-57.26-68.12c0-30.471,19.534-57.01,48.607-66.038
							c0.097-0.03,0.197-0.045,0.297-0.045c0.441,0,0.826,0.283,0.956,0.703c0.079,0.255,0.054,0.526-0.07,0.762
							c-0.124,0.236-0.333,0.41-0.589,0.489C79.832,73.656,60.864,99.427,60.864,129.017z"/>
					</g>
				</g>
			</g>
		</g>
	</g>
</g>
</svg>
